<svg version="1.2" xmlns="http://www.w3.org/2000/svg" viewBox="0 0 1009 381" width="530" height="200">
	<style>
		.s0 { fill: #ffffff }
		.s1 { fill: #d4a84b }
	</style>
	<path id="Edge5" class="s0" aria-label="Edge5"  d="m91.9 203v-14.7h114.1v-18.4h-114.1v-14.7h139.5v-35h-185.5v117.8h185.8v-35zm290.3-92v65c-8.9-19-33.4-30.9-68.1-30.9-39.6 0-68.6 16.1-68.6 47.8 0 30.2 28.9 47.7 68.6 47.7 34.8 0 59.4-12 68.2-31 0.4 17.7 2.5 28.4 2.5 28.4h41.6v-127zm-51.6 101.6c-25 0-39.3-6.6-39.3-19.7 0-13.2 14.3-19.7 39.3-19.7 28.1 0 51.6 4.1 51.6 19.7 0 15.5-23.5 19.7-51.6 19.7zm193-67.5c-53.5 0-76.2 16.4-76.2 40.9 0 20.8 14.6 33.1 46.1 37.4-28.8 1.1-42.4 6.5-42.4 20.4 0 10 5.2 21.3 40.1 21.3h51.3c10.3 0 20.3-0.3 20.3 7.5v5h44.1v-10.5c0-22.1-11.4-29.1-47.8-29.1h-54.3c-5.6 0-8.7-1.4-8.7-5 0-6.1 7-7.8 27.5-7.8 53.3 0 75.7-12.7 75.7-35.5 0-11-7.9-18.8-18.3-24.4 11 2.2 23 3.6 34.6 3v-23.4zm0 55.5c-24.9 0-34.3-5.8-34.3-13.9 0-8.2 9.7-13.8 34.3-13.8 24.5 0 33.6 5.8 33.6 13.8 0 8.1-9.4 13.9-33.6 13.9zm223.1 5.1c-2.9 5.3-17.1 8.2-38.4 8.2-30.5 0-41.3-8.2-43.1-17.6h125.2c0.7-37.7-24.4-51.2-80.2-51.2-57.1 0-89.8 12.7-89.8 48 0 35.9 34.2 47.7 89.8 47.7 52.5 0 76.3-13.6 79.8-35.1zm-38.4-33.5c26.4 0 37.4 6.3 39.2 12.4h-80.9c2.4-5.5 15.9-12.4 41.7-12.4z"/>
	<path id="Edge5-5" class="s1" aria-label="5"  d="m916.6 194.6c-24.3 0-47.9 6.3-60.8 13.4l3.8-27.1h99.8v-34.9h-139.6l-9.3 69.2 36.5 6.4c7.1-1.7 27-3.8 43.7-3.8 18.2 0 39.7 0.2 39.7 10.2 0 9.8-21.1 10-39.8 10-21.2 0-42-3.3-43-8.6h-40.5c0 25 40.1 39.9 86.7 39.9 53.6 0 80.8-13.1 80.8-40.7 0-26.7-27.9-34-58-34z"/>
	<path id="Shape-1" fill-rule="evenodd" class="s1" d="m133.91 53l10.96 0.07 1.1 258.89-10.96-0.07z"/>
</svg>
